<?xml version="1.0" encoding="UTF-8" standalone="no"?>
<!DOCTYPE svg PUBLIC "-//W3C//DTD SVG 1.1//EN" "http://www.w3.org/Graphics/SVG/1.1/DTD/svg11.dtd">
<svg width="100%" height="100%" viewBox="0 0 20 20" version="1.1" xmlns="http://www.w3.org/2000/svg" xmlns:xlink="http://www.w3.org/1999/xlink" xml:space="preserve" xmlns:serif="http://www.serif.com/" style="fill-rule:evenodd;clip-rule:evenodd;stroke-linejoin:round;stroke-miterlimit:2;">
    <g>
        <path d="M15.834,4.167L15.834,5.833L12.5,5.833L12.5,4.167L15.834,4.167ZM7.5,4.167L7.5,9.167L4.167,9.167L4.167,4.167L7.5,4.167ZM15.834,10.833L15.834,15.833L12.5,15.833L12.5,10.833L15.834,10.833ZM7.5,14.167L7.5,15.833L4.167,15.833L4.167,14.167L7.5,14.167ZM17.5,2.5L10.834,2.5L10.834,7.5L17.5,7.5L17.5,2.5ZM9.167,2.5L2.5,2.5L2.5,10.833L9.167,10.833L9.167,2.5ZM17.5,9.167L10.834,9.167L10.834,17.5L17.5,17.5L17.5,9.167ZM9.167,12.5L2.5,12.5L2.5,17.5L9.167,17.5L9.167,12.5Z" style="fill:rgb(255,103,0);fill-rule:nonzero;"/>
    </g>
</svg>
