<?xml version="1.0" encoding="UTF-8" standalone="no"?>
<!DOCTYPE svg PUBLIC "-//W3C//DTD SVG 1.1//EN" "http://www.w3.org/Graphics/SVG/1.1/DTD/svg11.dtd">
<svg width="100%" height="100%" viewBox="0 0 33 33" version="1.1" xmlns="http://www.w3.org/2000/svg" xmlns:xlink="http://www.w3.org/1999/xlink" xml:space="preserve" xmlns:serif="http://www.serif.com/" style="fill-rule:evenodd;clip-rule:evenodd;stroke-linejoin:round;stroke-miterlimit:2;">
    <path d="M2.753,10.443C2,11.818 2,13.477 2,16.796L2,19.001C2,24.657 2,27.486 3.699,29.243C5.398,31 8.132,31 13.6,31L19.4,31C24.868,31 27.603,31 29.301,29.243C31,27.486 31,24.657 31,19.001L31,16.796C31,13.477 31,11.818 30.247,10.443C29.494,9.068 28.119,8.214 25.368,6.507L22.468,4.707C19.56,2.902 18.107,2 16.5,2C14.894,2 13.44,2.902 10.532,4.707L7.632,6.507C4.881,8.214 3.506,9.068 2.753,10.443ZM12.798,21.426C12.315,21.069 11.634,21.17 11.276,21.652C10.919,22.135 11.02,22.816 11.502,23.174C12.912,24.219 14.637,24.837 16.5,24.837C18.363,24.837 20.088,24.219 21.498,23.174C21.98,22.816 22.081,22.135 21.724,21.652C21.366,21.17 20.685,21.069 20.202,21.426C19.146,22.209 17.872,22.663 16.5,22.663C15.128,22.663 13.854,22.209 12.798,21.426Z" style="fill:rgb(255,103,0);"/>
</svg>
