<?xml version="1.0" encoding="UTF-8" standalone="no"?>
<!DOCTYPE svg PUBLIC "-//W3C//DTD SVG 1.1//EN" "http://www.w3.org/Graphics/SVG/1.1/DTD/svg11.dtd">
<svg width="100%" height="100%" viewBox="0 0 48 48" version="1.1" xmlns="http://www.w3.org/2000/svg" xmlns:xlink="http://www.w3.org/1999/xlink" xml:space="preserve" xmlns:serif="http://www.serif.com/" style="fill-rule:evenodd;clip-rule:evenodd;stroke-linejoin:round;stroke-miterlimit:2;">
    <path d="M48,4L48,44C48,46.208 46.208,48 44,48L4,48C1.792,48 0,46.208 0,44L0,4C0,1.792 1.792,0 4,0L44,0C46.208,0 48,1.792 48,4Z" style="fill:rgb(207,38,0);fill-opacity:0.1;"/>
    <g>
        <path d="M37.333,36L10.667,36L10.667,33.333L12,33.333L12,13.333C12,12.98 12.141,12.641 12.391,12.391C12.641,12.141 12.98,12 13.333,12L32,12C32.354,12 32.693,12.141 32.943,12.391C33.193,12.641 33.333,12.98 33.333,13.333L33.333,20L36,20L36,33.333L37.333,33.333L37.333,36ZM30.667,33.333L33.333,33.333L33.333,22.667L25.333,22.667L25.333,33.333L28,33.333L28,25.333L30.667,25.333L30.667,33.333ZM30.667,20L30.667,14.667L14.667,14.667L14.667,33.333L22.667,33.333L22.667,20L30.667,20ZM17.333,22.667L20,22.667L20,25.333L17.333,25.333L17.333,22.667ZM17.333,28L20,28L20,30.667L17.333,30.667L17.333,28ZM17.333,17.333L20,17.333L20,20L17.333,20L17.333,17.333Z" style="fill:rgb(255,88,0);fill-rule:nonzero;"/>
    </g>
</svg>
